<?xml version="1.0" encoding="iso-8859-1"?>
<!-- Uploaded to: SVG Repo, www.svgrepo.com, Generator: SVG Repo Mixer Tools -->
<svg version="1.1" id="Layer_1" xmlns="http://www.w3.org/2000/svg" xmlns:xlink="http://www.w3.org/1999/xlink" 
	 viewBox="0 0 512 512" xml:space="preserve">
<g>
	<path style="fill:#E7ECED;" d="M499.011,379.985v39.675H340.31v-34.716c0-1.686-0.1-3.372-0.198-4.96h0.198h158.701V379.985z"/>
	<polygon style="fill:#E7ECED;" points="340.31,454.376 340.31,459.335 42.745,459.335 42.745,419.66 340.31,419.66 	"/>
</g>
<g>
	<polygon style="fill:#546A79;" points="499.011,419.66 499.011,464.295 375.025,464.295 360.148,454.376 340.31,454.376 
		340.31,419.66 	"/>
	<polygon style="fill:#546A79;" points="340.31,459.335 340.31,503.97 216.325,503.97 201.447,494.051 117.136,494.051 
		82.42,503.97 42.745,503.97 42.745,459.335 	"/>
</g>
<g>
	<path style="fill:#AFB6BB;" d="M389.903,265.918h29.757c43.642,0,79.35,35.708,79.35,79.35v34.716h-158.7h-0.198
		c-2.579-41.361-37.196-74.391-79.152-74.391h-29.757V87.379h39.675V57.623c0-5.455-4.463-9.918-9.919-9.918h128.945v218.214
		H389.903z"/>
	<path style="fill:#AFB6BB;" d="M231.202,305.594h29.757c41.956,0,76.573,33.03,79.152,74.391c0.1,1.587,0.198,3.273,0.198,4.96
		v34.716H42.745V87.379h188.458v218.214H231.202z"/>
</g>
<g>
	<path style="fill:#E7ECED;" d="M429.58,17.948v29.757h-39.675H171.69V17.948c0-5.455,4.463-9.918,9.918-9.918H419.66
		C425.115,8.029,429.58,12.492,429.58,17.948z"/>
	<path style="fill:#E7ECED;" d="M270.878,57.623v29.757h-39.675H42.745H12.989V57.623c0-5.455,4.463-9.918,9.918-9.918H171.69h89.27
		C266.414,47.704,270.878,52.168,270.878,57.623z"/>
</g>
<g>
	<path style="fill:#9DA4A9;" d="M53.638,87.379H42.745V419.66H340.31v-7.593C192.48,367.554,79.91,242.278,53.638,87.379z"/>
	<path style="fill:#9DA4A9;" d="M242.75,87.379h-11.548v218.214h29.757c41.956,0,76.573,33.029,79.152,74.391h0.198H499.01v-12.002
		C370.269,327.947,271.292,220.799,242.75,87.379z"/>
</g>
<rect x="156.812" y="128.946" width="39.674" height="16.058"/>
<g>
	<polygon style="fill:#FFFFFF;" points="69.432,335.35 69.432,392.974 127.055,392.974 127.055,376.916 85.49,376.916 85.49,335.35 
			"/>
	<rect x="146.888" y="376.914" style="fill:#FFFFFF;" width="24.794" height="16.058"/>
</g>
<path d="M419.661,257.889h-21.728v-86.197h-16.058v86.198h-86.2v16.058H419.66c39.326,0,71.321,31.995,71.321,71.321v26.687H347.31
	c-6.33-42.276-42.884-74.391-86.35-74.391h-21.728V95.408h39.676c0,0-0.036-39.053-0.102-39.675h103.069v33.536h-66.362v16.058
	h66.362v51.48h16.058V55.734h39.675V17.949C437.608,8.051,429.557,0,419.661,0H181.609c-9.896,0-17.947,8.051-17.947,17.949v21.728
	H22.907c-9.896,0-17.948,8.051-17.948,17.948v37.786h29.757v96.122h16.058v-46.528h81.241v-16.058H50.774V95.408h172.4v202.156
	h-86.2v16.058h123.985c37.553,0,68.802,29.37,71.138,66.865c0.096,1.539,0.183,3.04,0.183,4.458v26.686H50.774V211.366H34.716
	v300.633h48.828l34.716-9.919h80.755l14.878,9.92h134.445v-49.595h9.379l14.877,9.92H507.04V345.27
	C507.04,297.088,467.843,257.889,419.661,257.889z M179.719,17.949c0-1.025,0.865-1.891,1.889-1.891h238.052
	c1.023,0,1.89,0.866,1.89,1.891v21.728H179.719V17.949z M21.018,57.623c0-1.023,0.865-1.889,1.889-1.889H260.96
	c1.025,0,1.891,0.866,1.891,1.889V79.35H21.018V57.623z M332.281,495.942H218.756l-14.878-9.92h-87.866l-34.716,9.92H50.774v-28.577
	h106.033v-16.058H50.774v-23.618h281.507v23.618H176.653v16.058h155.628V495.942z M490.982,456.266H377.456l-14.877-9.92h-14.24
	v-58.332h142.643v23.617H365.107v16.058h125.876V456.266z"/>
<g>
	<polygon style="fill:#FFFFFF;" points="278.907,135.084 295.675,135.084 295.675,119.026 262.849,119.026 262.849,211.364 
		278.907,211.364 	"/>
	<rect x="262.848" y="226.247" style="fill:#FFFFFF;" width="16.058" height="24.794"/>
</g>
</svg>