<?xml version="1.0" encoding="iso-8859-1"?>
<!-- Uploaded to: SVG Repo, www.svgrepo.com, Generator: SVG Repo Mixer Tools -->
<svg version="1.1" id="Layer_1" xmlns="http://www.w3.org/2000/svg" xmlns:xlink="http://www.w3.org/1999/xlink" 
	 viewBox="0 0 512 512" xml:space="preserve">
<path style="fill:#249189;" d="M380.44,504.396c16.875,0,30.555-13.68,30.555-30.555v-54.918h74.963V146.209
	c0-76.55-62.055-138.605-138.605-138.605H164.647c-76.55,0-138.605,62.055-138.605,138.605v272.714h74.963v54.918
	c0,16.875,13.68,30.555,30.555,30.555L380.44,504.396L380.44,504.396z"/>
<path style="fill:#F2962E;" d="M255.999,91.754c46.401,0,84.15-37.749,84.15-84.15H171.849
	C171.849,54.005,209.598,91.754,255.999,91.754z"/>
<path style="fill:#249189;" d="M255.999,62.4c30.263,0,54.796-24.532,54.796-54.796H201.203
	C201.203,37.867,225.737,62.4,255.999,62.4z"/>
<rect x="26.042" y="162.786" style="fill:#D6374C;" width="459.918" height="153.306"/>
<g>
	<path style="fill:#F2962E;" d="M101.004,418.923H36.18v29.203c0,6.719,5.447,12.166,12.166,12.166h52.658V418.923z"/>
	<path style="fill:#F2962E;" d="M410.995,418.923h64.824v29.203c0,6.719-5.447,12.166-12.166,12.166h-52.658V418.923z"/>
</g>
<path style="fill:#7EC3C1;" d="M255.999,129.774v-15.208c45.385,0,85.969-28.813,100.991-71.697l14.352,5.028
	C354.189,96.87,307.836,129.774,255.999,129.774z"/>
<path style="fill:#7A1B2E;" d="M347.754,0.005V0h-0.401h-28.954H193.599h-28.954h-0.4v0.005
	C83.809,0.223,18.439,65.724,18.439,146.209v8.976v168.513v102.831h10.139v21.598c0,10.901,8.869,19.77,19.77,19.77h45.054v5.944
	c0,21.041,17.118,38.159,38.159,38.159h47.724v-15.208H131.56c-12.654,0-22.951-10.295-22.951-22.951v-5.944v-48.974v-7.604v-87.623
	h294.782v87.623v7.604v48.974v5.944c0,12.655-10.296,22.951-22.951,22.951h-180.88V512H380.44c21.041,0,38.159-17.118,38.159-38.159
	v-5.944h45.054c10.901,0,19.77-8.869,19.77-19.77v-21.599h10.139V323.697V155.185v-8.976C493.56,65.724,428.19,0.223,347.754,0.005z
	 M206.858,45.991l-10.062,10.062c-3.122-3.807-5.877-7.921-8.229-12.287l13.147-5.445C203.242,41.008,204.963,43.57,206.858,45.991z
	 M217.613,56.746c2.421,1.896,4.984,3.615,7.672,5.143l-5.445,13.148c-4.366-2.351-8.482-5.105-12.289-8.226L217.613,56.746z
	 M239.327,67.724c2.942,0.817,5.97,1.421,9.069,1.8v14.246c-4.995-0.495-9.849-1.479-14.517-2.892L239.327,67.724z M263.603,69.524
	c3.098-0.378,6.126-0.982,9.069-1.8l5.448,13.154c-4.669,1.412-9.521,2.397-14.517,2.892V69.524z M292.161,75.036l-5.445-13.148
	c2.688-1.527,5.251-3.247,7.672-5.143l10.064,10.064C300.643,69.931,296.527,72.685,292.161,75.036z M315.202,56.052L305.14,45.991
	c1.896-2.421,3.615-4.984,5.143-7.672l13.147,5.445C321.08,48.131,318.324,52.245,315.202,56.052z M332.172,15.208
	c-0.495,4.996-1.481,9.85-2.894,14.518l-13.158-5.451c0.817-2.942,1.421-5.97,1.8-9.069h14.252V15.208z M302.579,15.208
	c-3.647,22.421-23.145,39.588-46.58,39.588s-42.934-17.168-46.58-39.588H302.579z M194.08,15.208c0.378,3.098,0.982,6.126,1.8,9.069
	l-13.158,5.451c-1.412-4.67-2.399-9.522-2.894-14.518h14.252V15.208z M33.647,181.147l58.294,58.294l-58.294,58.294
	C33.647,297.735,33.647,181.147,33.647,181.147z M93.4,259.489v49h-49L93.4,259.489z M255.999,250.195l58.294,58.294H197.706
	L255.999,250.195z M179.348,305.339l-65.898-65.898l65.898-65.898l65.898,65.898L179.348,305.339z M266.754,239.441l65.898-65.898
	l65.898,65.898l-65.898,65.898L266.754,239.441z M478.352,297.735l-58.294-58.294l58.294-58.294V297.735z M467.598,308.489h-49v-49
	L467.598,308.489z M418.599,219.393v-49h49L418.599,219.393z M403.391,222.773l-52.38-52.38h52.38V222.773z M255.999,228.687
	l-58.294-58.294h116.588L255.999,228.687z M108.608,222.773v-52.38h52.38L108.608,222.773z M93.4,219.393l-49-49h49V219.393z
	 M48.348,452.689c-2.515,0-4.562-2.047-4.562-4.562v-21.599h49.616v26.162H48.348z M93.4,411.32H33.647v-87.623h59.755v87.623H93.4z
	 M108.608,256.108l52.38,52.38h-52.38C108.608,308.489,108.608,256.108,108.608,256.108z M351.01,308.489l52.38-52.38v52.38H351.01z
	 M468.214,448.127c0,2.515-2.047,4.562-4.562,4.562h-45.054v-26.162h49.616V448.127z M478.352,411.32h-59.755v-87.623h59.755V411.32
	z M418.599,155.185v-28.062h-15.208v28.062H108.608v-28.062H93.4v28.062H33.647v-8.976c0-72.206,58.721-130.954,130.917-131
	c3.878,47.049,43.403,84.149,91.436,84.149s87.558-37.1,91.437-84.149c72.195,0.046,130.917,58.794,130.917,131v8.976
	L418.599,155.185L418.599,155.185z"/>
<g>
	<rect x="255.999" y="338.903" style="fill:#7EC3C1;" width="55.762" height="15.208"/>
	<rect x="332.039" y="338.903" style="fill:#7EC3C1;" width="48.54" height="15.208"/>
</g>
</svg>