<?xml version="1.0" encoding="utf-8"?><!-- Uploaded to: SVG Repo, www.svgrepo.com, Generator: SVG Repo Mixer Tools -->
<svg width="800px" height="800px" viewBox="0 0 70 70" xmlns="http://www.w3.org/2000/svg"><title>Fashion</title><path d="M54.53,3.39V8.84H22.47V3.39A0.39,0.39,0,0,1,22.87,3H54.13A0.39,0.39,0,0,1,54.53,3.39Z" fill="#eb7e91"/><path d="M54.53,8.84l8,57.73a0.4,0.4,0,0,1-.4.43H48.84a0.39,0.39,0,0,1-.39-0.3L38.59,24.1h0a39.83,39.83,0,0,0,.76-5.66,39.84,39.84,0,0,0-.45-9V8.84H54.53Z" fill="#46bcb6"/><path d="M38.57,24.1h0C35.9,37.23,31.1,53.69,28.54,66.69a0.39,0.39,0,0,1-.39.31H14.9a0.4,0.4,0,0,1-.4-0.43l8-57.73H38.88V9.42a39.84,39.84,0,0,1,.45,9A39.83,39.83,0,0,1,38.57,24.1Z" fill="#46bcb6"/><path d="M34.59,24.1C31.9,37.23,27.1,53.69,24.54,66.69a0.39,0.39,0,0,1-.39.31H10.9a0.4,0.4,0,0,1-.4-0.43l8-57.73" fill="none" stroke="#752323" stroke-linecap="round" stroke-miterlimit="10" stroke-width="2"/><path d="M18.47,8.84H50.53l8,57.73a0.4,0.4,0,0,1-.4.43H44.84a0.39,0.39,0,0,1-.39-0.3L34.59,24.1" fill="none" stroke="#752323" stroke-linecap="round" stroke-miterlimit="10" stroke-width="2"/><path d="M18.47,8.84V3.39A0.39,0.39,0,0,1,18.87,3H50.13a0.39,0.39,0,0,1,.4.39V8.84" fill="none" stroke="#752323" stroke-linecap="round" stroke-miterlimit="10" stroke-width="2"/><path d="M25,15.14C24.64,18.34,21.4,21,17,21" fill="none" stroke="#752323" stroke-linecap="round" stroke-miterlimit="10" stroke-width="2"/><path d="M52,21c-4.43,0-8-2.6-8-5.81" fill="none" stroke="#752323" stroke-linecap="round" stroke-miterlimit="10" stroke-width="2"/><path d="M34.88,9.42a39.84,39.84,0,0,1,.45,9,39.83,39.83,0,0,1-.76,5.66c0,0.13,0,.25-0.08.38" fill="none" stroke="#752323" stroke-linecap="round" stroke-miterlimit="10" stroke-width="2"/></svg>